<svg xmlns="http://www.w3.org/2000/svg" viewBox="0 0 240 160" role="img" aria-label="Mandaí brand pattern">
  
  <rect width="240" height="160" fill="#FBF7F2"></rect>
  
  <path d="M 0 18 Q 60 32 120 18 Q 180 4 240 18" fill="none" stroke="#1C1812" stroke-width="1.5" opacity="0.4"></path>
  <g>
    <polygon points="14,18 22,18 18,30" fill="#E84B2A"></polygon>
    <polygon points="38,21 46,21 42,33" fill="#F59E10"></polygon>
    <polygon points="62,22 70,22 66,34" fill="#2E8A3B"></polygon>
    <polygon points="86,21 94,21 90,33" fill="#E84B2A"></polygon>
    <polygon points="110,18 118,18 114,30" fill="#F59E10"></polygon>
    <polygon points="134,17 142,17 138,29" fill="#2E8A3B"></polygon>
    <polygon points="158,17 166,17 162,29" fill="#E84B2A"></polygon>
    <polygon points="182,15 190,15 186,27" fill="#F59E10"></polygon>
    <polygon points="206,13 214,13 210,25" fill="#2E8A3B"></polygon>
    <polygon points="226,12 234,12 230,24" fill="#E84B2A"></polygon>
  </g>
  
  <g transform="translate(40,90)" opacity="0.85">
    <path d="M 0 0 Q -8 4 -7 12 Q -5 18 2 18 Q 10 16 12 8 Q 12 0 6 -2 Q 2 -2 0 0 Z" fill="#E84B2A"></path>
    <path d="M 4 -2 L 8 -8 L 12 -6 L 9 -1 Z" fill="#2E8A3B"></path>
  </g>
  <g transform="translate(180,110) rotate(40)" opacity="0.85">
    <path d="M 0 0 Q -8 4 -7 12 Q -5 18 2 18 Q 10 16 12 8 Q 12 0 6 -2 Q 2 -2 0 0 Z" fill="#F59E10"></path>
    <path d="M 4 -2 L 8 -8 L 12 -6 L 9 -1 Z" fill="#2E8A3B"></path>
  </g>
  
  <g transform="translate(110,80)" opacity="0.7">
    <path d="M 0 0 Q 4 -22 28 -24 Q 24 0 0 0 Z" fill="none" stroke="#2E8A3B" stroke-width="1.5"></path>
    <path d="M 4 -2 Q 12 -12 24 -20" fill="none" stroke="#2E8A3B" stroke-width="1.2"></path>
  </g>
</svg>