<svg xmlns="http://www.w3.org/2000/svg" viewBox="0 0 220 64" role="img" aria-label="Mandaí">
  <defs>
    
  </defs>

  
  <g transform="translate(2,12)">
    <g stroke="#F23A0A" stroke-width="2" stroke-linecap="round" opacity="0.6">
      <line x1="0" y1="14" x2="10" y2="14"></line>
      <line x1="2" y1="22" x2="13" y2="22"></line>
      <line x1="0" y1="30" x2="9" y2="30"></line>
    </g>
    <rect x="28" y="2" width="20" height="18" rx="3" fill="#F23A0A" stroke="#1C1812" stroke-width="2"></rect>
    <path d="M 32 16 L 32 6 L 35 6 L 38 11 L 41 6 L 44 6 L 44 16" fill="none" stroke="#FBF7F2" stroke-width="1.6" stroke-linecap="round" stroke-linejoin="round"></path>
    <path d="M 24 30 L 44 30 L 50 24 L 56 24" fill="none" stroke="#1C1812" stroke-width="2.4" stroke-linecap="round" stroke-linejoin="round"></path>
    <path d="M 56 24 L 56 19 L 60 19" fill="none" stroke="#1C1812" stroke-width="2.4" stroke-linecap="round" stroke-linejoin="round"></path>
    <circle cx="38" cy="-2" r="6" fill="#2E8A3B" stroke="#1C1812" stroke-width="2"></circle>
    <path d="M 38 4 L 46 22 L 50 24" fill="none" stroke="#1C1812" stroke-width="2.4" stroke-linecap="round" stroke-linejoin="round"></path>
    <circle cx="56" cy="30" r="6.5" fill="#FBF7F2" stroke="#1C1812" stroke-width="2.4"></circle>
    <circle cx="56" cy="30" r="1.8" fill="#1C1812"></circle>
    <circle cx="24" cy="30" r="6.5" fill="#FBF7F2" stroke="#1C1812" stroke-width="2.4"></circle>
    <circle cx="24" cy="30" r="1.8" fill="#1C1812"></circle>
  </g>

  <text class="word" x="78" y="48">Mandaí</text>

  <g transform="translate(208,8)">
    <path d="M 5 10 Q 0 13 1 18 Q 2 22 6 24 Q 11 24 13 19 Q 14 14 11 11 Q 8 8 5 10 Z" fill="#F23A0A"></path>
    <path d="M 7 9 L 9 5 L 11 6 L 10 10 Z" fill="#2E8A3B"></path>
  </g>
</svg>